<svg height="512.00107pt" viewBox="0 0 512.00107 512.00107" width="512.00107pt" xmlns="http://www.w3.org/2000/svg" xmlns:xlink="http://www.w3.org/1999/xlink"><linearGradient id="a"><stop offset="0" stop-color="#662d91"/><stop offset=".437" stop-color="#3873b3"/><stop offset="1" stop-color="#00c9dd"/></linearGradient><linearGradient id="b" gradientTransform="matrix(1.069671 0 0 -1.069671 0 502.793345)" gradientUnits="userSpaceOnUse" x1="106.3644" x2="471.456" xlink:href="#a" y1="363.6805" y2="-1.4111"/><linearGradient id="c" gradientTransform="matrix(1.069671 0 0 -1.069671 0 502.793345)" gradientUnits="userSpaceOnUse" x1="42.6175" x2="407.7091" xlink:href="#a" y1="299.9257" y2="-65.1659"/><linearGradient id="d" gradientTransform="matrix(1.069671 0 0 -1.069671 0 502.793345)" gradientUnits="userSpaceOnUse" x1="164.2032" x2="529.2949" xlink:href="#a" y1="421.5194" y2="56.4198"/><linearGradient id="e" gradientTransform="matrix(1.069671 0 0 -1.069671 0 502.793345)" gradientUnits="userSpaceOnUse" x1="72.4599" x2="437.5515" xlink:href="#a" y1="329.7761" y2="-35.3156"/><linearGradient id="f" gradientTransform="matrix(1.069671 0 0 -1.069671 0 502.793345)" gradientUnits="userSpaceOnUse" x1="140.2689" x2="505.3605" xlink:href="#a" y1="397.5851" y2="32.4934"/><path d="m503.464844 0h-221.867188c-4.710937 0-8.53125 3.820312-8.53125 8.535156v127.996094c0 4.714844 3.820313 8.535156 8.53125 8.535156 4.714844 0 8.535156-3.820312 8.535156-8.535156v-119.464844h204.800782v477.867188h-486.398438c-4.714844 0-8.535156 3.820312-8.535156 8.535156 0 4.710938 3.820312 8.53125 8.535156 8.53125h494.933594c4.710938 0 8.53125-3.820312 8.53125-8.53125v-494.933594c0-4.714844-3.820312-8.535156-8.535156-8.535156zm0 0" fill="url(#b)"/><path d="m289.929688 451.5-35.390626-71.679688c-2.511718-5.101562-6.421874-9.378906-11.277343-12.332031l-52.4375-31.871093 5.605469-25.535157c8.390624 12.214844 24.523437 16.332031 37.742187 9.636719l56.609375-28.730469c14.652344-7.546875 20.570312-25.433593 13.304688-40.226562-3.507813-7.164063-9.75-12.617188-17.320313-15.121094-7.480469-2.5-15.652344-1.886719-22.675781 1.707031l-32.425782 16.425782-11.023437-18.59375c31.398437-7.5 50.769531-39.035157 43.269531-70.433594-7.5-31.402344-39.035156-50.773438-70.4375-43.273438-31.398437 7.5-50.769531 39.035156-43.269531 70.4375.617187 2.582032 1.410156 5.125 2.375 7.601563l-69.804687 29.488281c-9.070313 3.554688-15.847657 11.296875-18.15625 20.761719l-14.160157 57.34375c-3.972656 16.003906 5.667969 32.226562 21.625 36.386719 7.613281 1.960937 15.695313.777343 22.425781-3.285157 6.878907-4.105469 11.820313-10.808593 13.714844-18.59375l10.390625-42.308593 20.285157-8.414063-10.964844 61.097656-43.222656 48.4375-35.308594-31.285156c-12.207032-10.851563-30.902344-9.753906-41.757813 2.457031-.105469.121094-.214843.242188-.320312.367188-10.710938 12.511718-9.464844 31.289062 2.808593 42.273437l56.601563 50.179688c11.898437 10.105469 29.535156 9.511719 40.730469-1.375l54.296875-54.996094 43.367187 26.339844 31.511719 63.875c4.957031 10.203125 15.304687 16.679687 26.648437 16.671875 4.640626.007812 9.214844-1.089844 13.347657-3.199219 14.652343-7.546875 20.566406-25.441406 13.292969-40.234375zm-21 25.007812c-6.292969 3.03125-13.851563.460938-16.992188-5.777343l-32.628906-66.082031c-.714844-1.453126-1.832032-2.671876-3.21875-3.515626l-51.25-31.152343c-3.382813-2.054688-7.730469-1.511719-10.503906 1.304687l-59.042969 59.808594c-4.734375 4.636719-12.222657 4.890625-17.265625.589844l-56.601563-50.175782c-5.332031-4.785156-5.867187-12.953124-1.203125-18.390624 4.488282-5.253907 12.382813-5.878907 17.636719-1.390626.070313.058594.136719.117188.207031.179688l41.667969 36.921875c3.515625 3.117187 8.890625 2.804687 12.023437-.699219l50.5-56.574218c1.050782-1.179688 1.75-2.621094 2.03125-4.175782l14.148438-78.847656c.816406-4.640625-2.289062-9.0625-6.929688-9.878906-1.597656-.277344-3.238281-.097656-4.734374.519531l-38.691407 16.050781c-2.507812 1.039063-4.371093 3.210938-5.019531 5.847656l-11.460938 46.453126c-.804687 3.367187-2.933593 6.265624-5.902343 8.039062-2.832031 1.726562-6.242188 2.222656-9.445313 1.382812-6.886718-1.820312-11.019531-8.847656-9.269531-15.753906l14.160156-57.359375c1.027344-4.136719 4.011719-7.507812 7.996094-9.027343l67.941406-28.671876 10.417969 4.511719c4.335938 1.855469 9.347656-.15625 11.203125-4.488281 1.324219-3.097656.703125-6.691406-1.59375-9.164062-7.359375-7.777344-11.457031-18.082032-11.445313-28.789063.351563-22.648437 18.992188-40.726563 41.640626-40.375 22.644531.347656 40.722656 18.988281 40.375 41.636719-.347657 22.402344-18.605469 40.382812-41.011719 40.378906-4.714844-.003906-8.535157 3.816406-8.539063 8.527344-.003906 1.535156.410156 3.039062 1.191406 4.359375l21.238282 35.839843c1.671875 2.789063 4.773437 4.394532 8.015625 4.15625l2.414062-.1875c1.109375-.09375 2.1875-.394531 3.183594-.898437l37.621094-19.054687c2.964843-1.527344 6.421875-1.78125 9.578125-.707032 3.230468 1.078125 5.894531 3.40625 7.398437 6.46875 3.183594 6.40625.644531 14.179688-5.703125 17.476563l-56.609375 28.679687c-6.300781 3.011719-13.855469.414063-16.972656-5.839844l-8.644531-17.5c-1.566406-3.28125-5.074219-5.175781-8.675782-4.695312-3.601562.441406-6.53125 3.105469-7.304687 6.648438l-12.007813 54.800781c-.777343 3.558593.789063 7.21875 3.902344 9.113281l57.648438 35.039062c2.082031 1.277344 3.757812 3.117188 4.839844 5.308594l35.378906 71.679688c3.160156 6.398437.632812 14.148437-5.691406 17.449218zm0 0" fill="url(#c)"/><path d="m324.265625 264.53125c0 4.714844 3.820313 8.535156 8.535156 8.535156h90.332031l-19.566406 19.566406c-3.390625 3.273438-3.480468 8.675782-.207031 12.066407s8.675781 3.484375 12.066406.207031c.070313-.066406.140625-.136719.207031-.207031l34.132813-34.132813c3.332031-3.332031 3.332031-8.734375 0-12.066406l-34.132813-34.132812c-3.390624-3.273438-8.792968-3.179688-12.066406.210937-3.191406 3.304687-3.191406 8.546875 0 11.855469l19.566406 19.566406h-90.332031c-4.714843 0-8.535156 3.820312-8.535156 8.53125zm0 0" fill="url(#d)"/><path d="m273.066406 324.265625v59.734375c0 4.714844 3.820313 8.535156 8.535156 8.535156 4.710938 0 8.53125-3.820312 8.53125-8.535156v-59.734375c0-4.710937-3.820312-8.53125-8.53125-8.53125-4.714843 0-8.535156 3.820313-8.535156 8.53125zm0 0" fill="url(#e)"/><path d="m281.597656 221.867188c4.714844 0 8.535156-3.820313 8.535156-8.535157v-8.53125c0-4.714843-3.820312-8.535156-8.535156-8.535156-4.710937 0-8.53125 3.820313-8.53125 8.535156v8.53125c0 4.714844 3.820313 8.535157 8.53125 8.535157zm0 0" fill="url(#f)"/></svg>