<?xml version="1.0" encoding="iso-8859-1"?>
                  <svg version="1.1" id="Layer_1" xmlns="http://www.w3.org/2000/svg" xmlns:xlink="http://www.w3.org/1999/xlink" x="0px" y="0px" viewBox="0 0 511.999 511.999" style="enable-background:new 0 0 511.999 511.999;" xml:space="preserve">
                  <g>
                    <path style="fill:#FFC61B;" d="M262.325,229.166c-7.936,0-14.369-6.433-14.369-14.369V51.52c0-25.677,22.255-46.568,49.608-46.568
                    c27.354,0,49.609,20.891,49.609,46.568c0,7.936-6.434,14.369-14.369,14.369c-7.935,0-14.369-6.433-14.369-14.369
                    c0-9.831-9.363-17.83-20.871-17.83c-11.508,0-20.871,7.998-20.871,17.83v163.276C276.694,222.733,270.261,229.166,262.325,229.166z
                    "/>
                    <path style="fill:#FFC61B;" d="M427.15,270.777c-7.935,0-14.369-6.433-14.369-14.369V51.52c0-25.677,22.254-46.568,49.608-46.568
                    s49.608,20.891,49.608,46.568c0,7.936-6.434,14.369-14.369,14.369c-7.934,0-14.369-6.433-14.369-14.369
                    c0-9.831-9.363-17.83-20.871-17.83s-20.871,7.998-20.871,17.83v204.889C441.519,264.344,435.086,270.777,427.15,270.777z"/>
                    <path style="fill:#FFC61B;" d="M339.973,125.006h-77.648c-7.936,0-14.369-6.433-14.369-14.369s6.433-14.369,14.369-14.369h77.648
                    c7.934,0,14.369,6.433,14.369,14.369S347.909,125.006,339.973,125.006z"/>
                    <path style="fill:#FFC61B;" d="M339.973,229.166h-77.648c-7.936,0-14.369-6.433-14.369-14.369c0-7.936,6.433-14.369,14.369-14.369
                    h77.648c7.934,0,14.369,6.433,14.369,14.369C354.342,222.733,347.909,229.166,339.973,229.166z"/>
                    <path style="fill:#FFC61B;" d="M427.15,177.086h-77.649c-7.934,0-14.369-6.433-14.369-14.369s6.434-14.369,14.369-14.369h77.649
                    c7.934,0,14.369,6.433,14.369,14.369S435.086,177.086,427.15,177.086z"/>
                  </g>
                  <path style="fill:#FEE187;" d="M471.708,375.118c0,17.168-20.535,31.086-45.865,31.086c-25.331,0-45.865-13.918-45.865-31.086
                  c0,17.168-20.535,31.086-45.865,31.086c-25.331,0-45.865-13.918-45.865-31.086h0.655c0,17.168-20.535,31.086-45.865,31.086
                  s-45.865-13.918-45.865-31.086c0,17.168-20.535,31.086-45.865,31.086s-45.865-13.918-45.865-31.086h0.655
                  c0,17.168-20.535,31.086-45.865,31.086s-45.861-13.918-45.861-31.086v-88.037c0,17.168,20.535,31.086,45.865,31.086
                  s45.865-13.918,45.865-31.086h-0.655c0,17.168,20.535,31.086,45.865,31.086s45.865-13.918,45.865-31.086
                  c0,17.168,20.535,31.086,45.865,31.086s45.865-13.918,45.865-31.086h-0.655c0,17.168,20.535,31.086,45.865,31.086
                  s45.865-13.918,45.865-31.086c0,17.168,20.535,31.086,45.865,31.086s45.865-13.918,45.865-31.086v88.037H471.708z"/>
                  <g>
                  <path style="fill:#FFC61B;" d="M425.843,420.572c-18.553,0-34.901-6.025-45.865-15.681c-10.965,9.656-27.311,15.681-45.864,15.681
                  c-18.227,0-34.51-5.864-45.536-15.413c-11.03,9.55-27.312,15.413-45.538,15.413c-18.555,0-34.901-6.025-45.865-15.681
                  c-10.965,9.656-27.311,15.681-45.864,15.681c-18.227,0-34.51-5.864-45.538-15.415c-11.028,9.551-27.311,15.415-45.538,15.415
                  C26.457,420.572,0,400.607,0,375.118v-88.037c0-7.936,6.433-14.369,14.369-14.369s14.369,6.433,14.369,14.369
                  c0,7.73,13.758,16.717,31.495,16.717c15.955,0,28.261-6.937,30.951-13.926c-0.073-0.93-0.109-1.861-0.109-2.789
                  c0-7.936,6.433-14.369,14.369-14.369h0.655c7.936,0,14.369,6.433,14.369,14.369c0,0.928-0.036,1.859-0.109,2.789
                  c2.69,6.989,14.995,13.926,30.951,13.926c17.737,0,31.495-8.986,31.495-16.717c0-7.936,6.433-14.369,14.369-14.369
                  c7.936,0,14.369,6.433,14.369,14.369c0,7.73,13.758,16.717,31.497,16.717c15.955,0,28.261-6.937,30.951-13.926
                  c-0.073-0.928-0.109-1.861-0.109-2.789c0-7.936,6.434-14.369,14.369-14.369h0.655c7.934,0,14.369,6.433,14.369,14.369
                  c0,0.928-0.036,1.861-0.109,2.789c2.69,6.99,14.995,13.926,30.951,13.926c17.738,0,31.495-8.986,31.495-16.717
                  c0-7.936,6.434-14.369,14.369-14.369c7.934,0,14.369,6.433,14.369,14.369c0,7.73,13.758,16.717,31.497,16.717
                  c17.738,0,31.497-8.986,31.497-16.717c0-7.936,6.434-14.369,14.369-14.369c7.935,0,14.369,6.433,14.369,14.369v88.037
                  C486.077,400.607,459.62,420.572,425.843,420.572z M394.346,375.118c0,7.73,13.758,16.715,31.497,16.715
                  c17.738,0,31.497-8.985,31.497-16.715V326.03c-9.113,4.143-19.869,6.508-31.497,6.508c-18.553,0-34.901-6.025-45.865-15.681
                  c-10.965,9.656-27.311,15.681-45.864,15.681c-18.227,0-34.51-5.864-45.536-15.415c-11.03,9.551-27.312,15.415-45.538,15.415
                  c-18.555,0-34.901-6.025-45.865-15.681c-10.965,9.656-27.311,15.681-45.864,15.681c-18.227,0-34.51-5.864-45.538-15.415
                  c-11.028,9.551-27.311,15.415-45.538,15.415c-11.624,0-22.385-2.365-31.495-6.508v49.09c0,7.73,13.758,16.715,31.495,16.715
                  c15.955,0,28.261-6.937,30.951-13.926c-0.073-0.93-0.109-1.861-0.109-2.789c0-7.936,6.433-14.369,14.369-14.369h0.655
                  c7.936,0,14.369,6.433,14.369,14.369c0,0.928-0.036,1.859-0.109,2.789c2.69,6.989,14.995,13.926,30.951,13.926
                  c17.737,0,31.495-8.985,31.495-16.715c0-7.936,6.433-14.369,14.369-14.369c7.936,0,14.369,6.433,14.369,14.369
                  c0,7.73,13.758,16.715,31.497,16.715c15.955,0,28.261-6.937,30.951-13.926c-0.073-0.93-0.109-1.861-0.109-2.789
                  c0-7.936,6.434-14.369,14.369-14.369h0.655c7.934,0,14.369,6.433,14.369,14.369c0,0.928-0.036,1.859-0.109,2.789
                  c2.69,6.989,14.995,13.926,30.951,13.926c17.738,0,31.495-8.985,31.495-16.715c0-7.936,6.434-14.369,14.369-14.369
                  C387.913,360.75,394.346,367.183,394.346,375.118z"/>
                  <path style="fill:#FFC61B;" d="M334.113,507.047c-18.371,0-34.576-5.906-45.536-15.395c-10.962,9.489-27.167,15.395-45.538,15.395
                  c-18.555,0-34.901-6.025-45.865-15.681c-10.965,9.656-27.311,15.681-45.864,15.681c-33.775,0-60.234-19.966-60.234-45.453
                  c0-7.936,6.433-14.369,14.369-14.369h0.655c7.936,0,14.369,6.433,14.369,14.369c0,0.841-0.072,1.665-0.211,2.467
                  c2.492,7.052,15.178,14.25,31.053,14.25c17.738,0,31.495-8.985,31.495-16.715c0-7.936,6.433-14.369,14.369-14.369
                  c7.936,0,14.369,6.433,14.369,14.369c0,7.73,13.758,16.715,31.497,16.715c15.658,0,28.216-7.003,30.945-13.962
                  c-0.069-0.91-0.103-1.828-0.103-2.754c0-7.936,6.434-14.369,14.369-14.369h0.655c7.935,0,14.369,6.433,14.369,14.369
                  c0,0.925-0.034,1.844-0.103,2.754c2.729,6.959,15.287,13.962,30.945,13.962c17.738,0,31.495-8.985,31.495-16.715
                  c0-7.936,6.434-14.369,14.369-14.369c7.934,0,14.369,6.433,14.369,14.369C394.346,487.082,367.889,507.047,334.113,507.047z"/>
                </g>
              </svg>