<?xml version="1.0" encoding="iso-8859-1"?>
<!-- Generator: Adobe Illustrator 19.0.0, SVG Export Plug-In . SVG Version: 6.00 Build 0)  -->
<svg version="1.1" id="Layer_1" xmlns="http://www.w3.org/2000/svg" xmlns:xlink="http://www.w3.org/1999/xlink" x="0px" y="0px"
	 viewBox="0 0 512 512" style="enable-background:new 0 0 512 512;" xml:space="preserve">
<g>
	<rect x="35.67" y="16.082" style="fill:#FEE187;" width="440.653" height="62.523"/>
	<polygon style="fill:#FEE187;" points="81.138,313.603 95.199,495.918 416.801,495.918 430.864,313.603 	"/>
</g>
<g>
	<path style="fill:#FFC61B;" d="M444.001,143.248c-8.876-0.679-16.586,5.942-17.271,14.799l-4.058,52.618H200.786
		c-8.881,0-16.082,7.202-16.082,16.082s7.202,16.082,16.082,16.082h219.405l-4.218,54.692H81.138c-4.481,0-8.757,1.869-11.801,5.156
		c-3.044,3.287-4.579,7.695-4.234,12.163l14.061,182.314C79.81,505.533,86.796,512,95.199,512h321.604c0.002,0,0.005,0,0.008,0
		s0.006,0,0.01,0c1.565,0,3.083-0.227,4.524-0.651c0.15-0.043,0.291-0.103,0.439-0.151c0.325-0.106,0.651-0.209,0.967-0.335
		c0.335-0.133,0.659-0.289,0.983-0.445c0.121-0.058,0.244-0.105,0.363-0.166c0.363-0.185,0.714-0.391,1.06-0.603
		c0.072-0.043,0.15-0.08,0.222-0.127c0.338-0.214,0.663-0.447,0.984-0.685c0.072-0.053,0.151-0.101,0.224-0.156
		c0.281-0.216,0.548-0.452,0.815-0.685c0.103-0.09,0.212-0.17,0.312-0.264c0.217-0.201,0.418-0.417,0.622-0.629
		c0.137-0.142,0.283-0.275,0.415-0.421c0.151-0.167,0.286-0.347,0.431-0.521c0.17-0.206,0.349-0.405,0.51-0.621
		c0.098-0.132,0.182-0.272,0.277-0.405c0.19-0.27,0.383-0.537,0.555-0.82c0.066-0.106,0.119-0.22,0.182-0.328
		c0.187-0.322,0.373-0.642,0.537-0.976c0.037-0.074,0.064-0.153,0.1-0.227c0.178-0.376,0.351-0.756,0.499-1.147
		c0.031-0.079,0.05-0.162,0.079-0.241c0.142-0.392,0.278-0.788,0.391-1.197c0.042-0.153,0.068-0.312,0.105-0.468
		c0.082-0.339,0.169-0.679,0.23-1.028c0.088-0.508,0.154-1.026,0.195-1.55l14.061-182.314v-0.003L458.8,160.518
		C459.482,151.665,452.856,143.931,444.001,143.248z M98.507,329.686h314.985l-10.711,138.883l-0.868,11.267H110.089L98.507,329.686
		z"/>
	<path style="fill:#FFC61B;" d="M476.326,0H35.674c-8.881,0-16.082,7.202-16.082,16.082v62.523c0,8.881,7.202,16.082,16.082,16.082
		h12.449l11.59,150.285c0.651,8.435,7.697,14.845,16.018,14.845c0.415,0,0.835-0.016,1.253-0.047
		c8.856-0.684,15.482-8.416,14.799-17.271l-5.83-75.591h234.374c8.881,0,16.082-7.202,16.082-16.082
		c0-8.881-7.202-16.082-16.082-16.082H83.473l-3.089-40.058h395.943c8.881,0,16.082-7.202,16.082-16.082V16.082
		C492.409,7.202,485.209,0,476.326,0z M460.244,62.523H51.756V32.164h408.488V62.523z"/>
</g>
<g>
</g>
<g>
</g>
<g>
</g>
<g>
</g>
<g>
</g>
<g>
</g>
<g>
</g>
<g>
</g>
<g>
</g>
<g>
</g>
<g>
</g>
<g>
</g>
<g>
</g>
<g>
</g>
<g>
</g>
</svg>
